<svg id="Layer_1" data-name="Layer 1" xmlns="http://www.w3.org/2000/svg" xmlns:xlink="http://www.w3.org/1999/xlink" viewBox="0 0 200.02 110.02"><defs><style>.cls-1{fill:none;}.cls-2{clip-path:url(#clip-path);}.cls-3{fill:#0b3780;}.cls-4{fill:#63c4af;}.cls-5{fill:#008ad0;}.cls-6{fill:#f58220;}</style><clipPath id="clip-path"><rect class="cls-1" x="1.08" y="-3.78" width="192.96" height="115.93"/></clipPath></defs><title>logo</title><g class="cls-2"><path class="cls-3" d="M38,48.81a21.11,21.11,0,0,0-2-4.94,6.58,6.58,0,0,0-2.52-2.49,7.73,7.73,0,0,0-3.61-.74,8,8,0,0,0-3.64.74,6.45,6.45,0,0,0-2.52,2.49,22.13,22.13,0,0,0-2,4.94L12.53,78.45H20l8.6-29.53q.38-1.38,1.17-1.38T31,48.92l8.6,29.53h7.49Z"/><path class="cls-3" d="M56.6,75.48c-2-2-3-4.85-3-8.61V41.27h4.28a3.22,3.22,0,0,1,3.21,3.22V66.87a6.29,6.29,0,0,0,1.28,4.33,5,5,0,0,0,3.93,1.41h11a.94.94,0,0,1,.94.94v4.9H66.35q-6.79,0-9.75-3"/><path class="cls-3" d="M88.88,47.11H77.68v-3a2.79,2.79,0,0,1,2.79-2.79h27.11v3.58a2.27,2.27,0,0,1-2.27,2.26H96.37V78.45H88.88Z"/><path class="cls-3" d="M122.47,59.38,112.06,41.27h6.27a3.48,3.48,0,0,1,3,1.82l6.82,12.58,6.67-12.55a3.48,3.48,0,0,1,3.07-1.85h6.3L133.62,59.34a13.56,13.56,0,0,0-1.86,6.86V78.45h-7.49V66.13a13.56,13.56,0,0,0-1.8-6.75"/><polygon class="cls-3" points="102.46 88.86 103.54 88.86 103.54 93.84 109.88 93.84 109.88 88.86 110.95 88.86 110.95 99.79 109.88 99.79 109.88 94.8 103.54 94.8 103.54 99.79 102.46 99.79 102.46 88.86"/><path class="cls-3" d="M120.8,88.68a5.52,5.52,0,0,1,5.56,5.58,5.56,5.56,0,1,1-11.12,0,5.52,5.52,0,0,1,5.56-5.58m0,10.3a4.55,4.55,0,0,0,4.45-4.72,4.45,4.45,0,1,0-8.89,0A4.54,4.54,0,0,0,120.8,99"/><path class="cls-3" d="M130.48,97.76A4.29,4.29,0,0,0,133.34,99a2,2,0,0,0,2.18-1.89c0-2.76-5.46-2.06-5.46-5.44a3.14,3.14,0,0,1,3.41-2.94,4.24,4.24,0,0,1,2.92,1.06l-.53.9a3.7,3.7,0,0,0-2.39-.94,2.1,2.1,0,0,0-2.31,1.88c0,2.6,5.46,1.85,5.46,5.45a3,3,0,0,1-3.31,3,4.82,4.82,0,0,1-3.47-1.4Z"/><path class="cls-3" d="M140.87,88.86h3.78a3.32,3.32,0,1,1,0,6.64H142v4.29h-1.08Zm3.64,5.68a2.22,2.22,0,0,0,2.41-2.38,2.18,2.18,0,0,0-2.39-2.33H142v4.71Z"/><rect class="cls-3" x="152.03" y="88.86" width="1.07" height="10.93"/><polygon class="cls-3" points="160.6 89.83 156.66 89.83 156.66 88.86 165.59 88.86 165.59 89.83 161.67 89.83 161.67 99.79 160.6 99.79 160.6 89.83"/><path class="cls-3" d="M173.84,96.31h-4.4l-1.25,3.48h-1.13l4-10.93h1.15l4,10.93h-1.14ZM171.63,90s-.23.9-.42,1.41l-1.46,4h3.76l-1.43-4c-.19-.51-.42-1.41-.42-1.41Z"/><polygon class="cls-3" points="179.88 88.86 180.95 88.86 180.95 98.83 186.02 98.83 186.02 99.79 179.88 99.79 179.88 88.86"/><rect class="cls-3" x="169.34" y="22" width="15.32" height="15.32"/><path class="cls-4" d="M184.66,22H169.34V9.53a2.85,2.85,0,0,1,2.85-2.85H184a.61.61,0,0,1,.62.61Z"/><path class="cls-5" d="M181.77,52.65H170a.62.62,0,0,1-.62-.62V37.32h15.33V49.76a2.9,2.9,0,0,1-2.89,2.89"/><path class="cls-6" d="M169.34,37.32H156.88A2.86,2.86,0,0,1,154,34.46V22.63a.63.63,0,0,1,.63-.63h14.7Z"/></g></svg>